<?xml version="1.0" encoding="UTF-8"?>
<svg version="1.1" xmlns="http://www.w3.org/2000/svg" width="512" height="512">
<path d="M0 0 C1.66974129 -0.01007584 1.66974129 -0.01007584 3.37321472 -0.02035522 C7.04353331 -0.03931087 10.71366874 -0.04325848 14.3840332 -0.04541016 C16.94603042 -0.05184061 19.5080269 -0.05856916 22.07002258 -0.06558228 C27.43895481 -0.07754959 32.8078149 -0.08134964 38.17675781 -0.08007812 C44.35535245 -0.07887889 50.53359655 -0.09994438 56.71210259 -0.13156545 C62.68418512 -0.16102548 68.65607963 -0.16804994 74.6282444 -0.16685867 C77.15543866 -0.16920928 79.68263587 -0.17800209 82.20978355 -0.19352341 C85.75603118 -0.21326166 89.30139237 -0.20731339 92.84765625 -0.1953125 C93.87820129 -0.20655151 94.90874634 -0.21779053 95.97052002 -0.22937012 C108.32323322 -0.12388932 118.17843752 3.78104352 126.9074707 12.43115234 C133.53476019 19.50346853 136.88795247 26.23892824 136.86083984 36.08081055 C136.86076431 37.00138748 136.86068878 37.92196442 136.86061096 38.87043762 C136.85544968 39.85082504 136.85028839 40.83121246 136.8449707 41.84130859 C136.84284828 43.36222359 136.84284828 43.36222359 136.84068298 44.91386414 C136.83509774 48.14361556 136.8225479 51.37329697 136.80981445 54.60302734 C136.80479755 56.79638572 136.80023497 58.98974518 136.79614258 61.18310547 C136.78513313 66.55226987 136.76840965 71.9213936 136.74731445 77.29052734 C137.41323545 77.28684017 138.07915646 77.283153 138.76525688 77.2793541 C155.00014505 77.19085441 171.23495638 77.12474569 187.47002983 77.08327866 C195.32133546 77.06269032 203.17247966 77.03464152 211.02368164 76.98876953 C217.87015971 76.94878703 224.7165208 76.92306745 231.56311238 76.91417336 C235.18533831 76.9089778 238.80722972 76.89684536 242.42934799 76.86760712 C246.48193688 76.83516216 250.53395143 76.8345752 254.58666992 76.83642578 C255.77566391 76.82204468 256.9646579 76.80766357 258.18968201 76.79284668 C268.15747427 76.84195907 275.98682256 78.88501404 283.17700195 86.02099609 C288.17976776 93.2513616 289.33683434 99.86066504 289.28076172 108.52661133 C289.28937729 109.61401611 289.29799286 110.7014209 289.30686951 111.82177734 C289.32945439 115.39363847 289.32280383 118.96471023 289.3137207 122.53662109 C289.31895959 125.03329195 289.32523704 127.52996081 289.33250427 130.02662659 C289.34422241 135.91835539 289.33466568 141.80980433 289.31809992 147.70151335 C289.30716626 152.38508373 289.3192815 157.06820026 289.34423828 161.75170898 C289.3783754 168.23314619 289.38787982 174.71411844 289.37745476 181.19563484 C289.37663719 183.65749111 289.38346312 186.11936271 289.39822578 188.58117485 C289.41573642 192.02966365 289.40107269 195.47662031 289.37841797 198.92504883 C289.39011017 199.93159012 289.40180237 200.93813141 289.41384888 201.97517395 C289.30613787 210.07471619 286.92376471 216.47144264 281.7199707 222.72802734 C281.08961914 223.24365234 280.45926758 223.75927734 279.80981445 224.29052734 C279.18204102 224.82677734 278.55426758 225.36302734 277.9074707 225.91552734 C275.30578975 227.57157019 272.67600752 228.35614074 269.74731445 229.29052734 C269.75100163 230.13682898 269.7546888 230.98313061 269.7584877 231.85507774 C269.84692111 252.4711937 269.91306414 273.08727684 269.95456314 293.70354271 C269.97516646 303.67352496 270.00324436 313.6433804 270.04907227 323.61328125 C270.08900837 332.305579 270.11476348 340.99778489 270.12366843 349.69017184 C270.12887172 354.29046481 270.14105467 358.89049503 270.17023468 363.49070358 C270.19751094 367.82616995 270.20573493 372.16126688 270.19974518 376.49681091 C270.20083998 378.08261247 270.20872097 379.66842719 270.22413635 381.25415421 C270.32465468 392.13349873 269.63194487 402.48501874 261.6418457 410.68896484 C254.13243083 417.03713 248.45108877 418.48061517 238.83325195 418.19116211 C227.34803039 417.77803619 227.34803039 417.77803619 217.48950195 423.04833984 C213.80334536 426.61468967 210.48146988 430.44669759 207.36523438 434.51879883 C204.83711236 437.28725839 202.63240013 438.1845143 198.94262695 438.62646484 C197.92942383 438.63935547 196.9162207 438.65224609 195.87231445 438.66552734 C194.86426758 438.69388672 193.8562207 438.72224609 192.81762695 438.75146484 C188.35801987 438.0819564 185.1790235 436.05096577 182.35936427 432.58389509 C181.90224095 431.95544962 181.44511762 431.32700415 180.97414207 430.67951488 C175.8376789 423.86952271 170.94639292 419.2141464 162.26857376 417.91797829 C154.81888522 417.29790946 147.38190096 417.37519489 139.91541886 417.52363622 C135.99314731 417.58485204 132.07129421 417.55821701 128.14871216 417.54260254 C121.36609266 417.52722018 114.58555294 417.56583771 107.8033638 417.64164162 C97.98824523 417.75090565 88.17440768 417.77261968 78.35875122 417.77293571 C62.4176702 417.77542361 46.47754572 417.8417057 30.53686523 417.95141602 C15.08312546 418.05758296 -0.37043853 418.14361876 -15.82446289 418.19555664 C-16.77724599 418.19877211 -17.73002908 418.20198758 -18.71168439 418.20530049 C-29.11775166 418.23978825 -39.52382661 418.26798977 -49.92992592 418.29074383 C-51.30231247 418.29377694 -51.30231247 418.29377694 -52.702424 418.29687133 C-60.08738232 418.31312719 -60.08738232 418.31312719 -63.67563851 418.32033928 C-74.37015207 418.34210919 -85.06419697 418.38309409 -95.75847168 418.45879539 C-102.46246249 418.50601477 -109.16643329 418.5407124 -115.87054388 418.5656651 C-120.47654976 418.58367153 -125.08200972 418.61816667 -129.68779876 418.66583918 C-133.14083431 418.69629705 -136.59380805 418.70046007 -140.04696655 418.70857239 C-141.26340454 418.7265646 -142.47984252 418.74455681 -143.73314226 418.76309425 C-154.03829343 418.74306322 -160.99949083 416.10501208 -168.5300293 409.08349609 C-174.45367115 402.91807295 -176.49291768 396.69271325 -176.53115845 388.26699829 C-176.53695085 387.58400205 -176.54274325 386.90100581 -176.54871118 386.19731271 C-176.56563865 383.92185774 -176.56858135 381.64660647 -176.5715332 379.37109375 C-176.5808364 377.73475654 -176.59100566 376.09842406 -176.60197449 374.46209717 C-176.6292444 370.02871958 -176.64441498 365.59537372 -176.65740252 361.16193438 C-176.67304621 356.52543028 -176.69983249 351.88899084 -176.72543335 347.25253296 C-176.77219919 338.47668042 -176.80895393 329.70081569 -176.84210622 320.92490232 C-176.8803431 310.93216846 -176.92974918 300.93949957 -176.98009038 290.9468205 C-177.08337759 270.39477077 -177.17264845 249.8426799 -177.25268555 229.29052734 C-178.08052803 228.89037163 -178.08052803 228.89037163 -178.9250946 228.48213196 C-179.6476796 228.12797714 -180.37026459 227.77382233 -181.11474609 227.40893555 C-181.83164108 227.05966507 -182.54853607 226.71039459 -183.28715515 226.35054016 C-185.69815205 225.05028674 -187.31026833 223.57453429 -189.06518555 221.47802734 C-189.60788086 220.85283203 -190.15057617 220.22763672 -190.7097168 219.58349609 C-195.23996616 212.85120147 -195.69551989 207.22302781 -195.67260742 199.28149414 C-195.68107697 198.19438141 -195.68954651 197.10726868 -195.69827271 195.98721313 C-195.72161156 192.40460407 -195.72266546 188.82242534 -195.72143555 185.23974609 C-195.72853959 182.74021738 -195.73623894 180.2406903 -195.74450684 177.74116516 C-195.75794496 172.50506219 -195.75970557 167.26906935 -195.75366211 162.03295898 C-195.74776132 156.66817803 -195.76182651 151.30389126 -195.79467773 145.93920898 C-195.83389313 139.44713493 -195.84846906 132.95548482 -195.84388733 126.46329689 C-195.84557593 123.9958495 -195.85519323 121.52839385 -195.87303162 119.06101036 C-195.89528059 115.60276747 -195.88548706 112.14598402 -195.86791992 108.68774414 C-195.88118317 107.67806076 -195.89444641 106.66837738 -195.90811157 105.62809753 C-195.8147635 97.67950482 -193.7197308 91.09757314 -188.29219818 85.1377821 C-180.26929531 77.40623979 -171.98635581 76.85376595 -161.3190918 76.94995117 C-160.04020584 76.94951309 -158.76131989 76.94907501 -157.44367981 76.94862366 C-153.95859885 76.94776745 -150.47383142 76.96533174 -146.98882294 76.98634553 C-143.33867508 77.00517541 -139.68851901 77.00686772 -136.03833008 77.01042175 C-129.13595561 77.01972377 -122.2337247 77.04431238 -115.33141327 77.07447022 C-107.46924529 77.10807186 -99.60707023 77.12451469 -91.74484825 77.13955653 C-75.58071015 77.17086375 -59.41671621 77.22358808 -43.25268555 77.29052734 C-43.2626783 76.45939926 -43.2626783 76.45939926 -43.27287292 75.61148071 C-43.33965204 69.80322112 -43.38466134 63.99507201 -43.41748047 58.18652344 C-43.43249323 56.0237179 -43.45290971 53.86094242 -43.47900391 51.69824219 C-43.5157192 48.57528223 -43.53248751 45.45272755 -43.5456543 42.32958984 C-43.56113815 41.37500885 -43.57662201 40.42042786 -43.59257507 39.43692017 C-43.5954068 27.93722302 -40.44296105 19.55770068 -32.3659668 11.38037109 C-22.73248675 2.46608995 -12.85224163 -0.01119371 0 0 Z M2.74731445 45.29052734 C-0.62742834 55.41475571 1.74731445 66.61865361 1.74731445 77.29052734 C31.44731445 77.29052734 61.14731445 77.29052734 91.74731445 77.29052734 C93.28590549 59.69124729 93.28590549 59.69124729 89.74731445 43.29052734 C86.18409694 42.10278817 82.94281328 42.13515203 79.23413086 42.12939453 C78.08972282 42.12194717 78.08972282 42.12194717 76.92219543 42.11434937 C74.39774677 42.09974188 71.87336094 42.09292833 69.34887695 42.08740234 C67.59394326 42.08165 65.83900959 42.07589228 64.08407593 42.07012939 C60.40378527 42.05962362 56.72351643 42.05377809 53.04321289 42.05029297 C48.32984806 42.04480723 43.61677196 42.0207758 38.9034977 41.99232101 C35.27807779 41.97368846 31.65272738 41.96848872 28.02726364 41.96695709 C26.28974198 41.96393174 24.5522215 41.95590716 22.81474686 41.94277191 C20.38270396 41.92569728 17.9513658 41.92759483 15.51928711 41.93408203 C14.44525887 41.92025986 14.44525887 41.92025986 13.34953308 41.90615845 C8.9950112 41.94250282 6.17177621 42.54465763 2.74731445 45.29052734 Z " fill="#010100" transform="translate(209.252685546875,36.70947265625)"/>
<path d="M0 0 C1.11361539 -0.00872064 1.11361539 -0.00872064 2.24972805 -0.01761746 C4.73345316 -0.0321968 7.21618681 -0.01834252 9.69990444 -0.00457001 C11.50008776 -0.00917974 13.30026732 -0.01553315 15.10043901 -0.02347898 C20.04422853 -0.04018528 24.98770941 -0.03191999 29.93150008 -0.01953411 C35.26421463 -0.01049137 40.59687576 -0.02444946 45.92957973 -0.0354538 C56.37488398 -0.0532515 66.82007334 -0.04939354 77.26538212 -0.03780323 C85.75296969 -0.0287746 94.24052504 -0.02754244 102.72811604 -0.0318985 C104.53918114 -0.0328179 104.53918114 -0.0328179 106.38683341 -0.03375587 C108.8394803 -0.03503475 111.29212717 -0.0363316 113.74477404 -0.03764623 C136.74937622 -0.04905557 159.75391468 -0.0359325 182.75850641 -0.01444477 C202.50531598 0.00342878 222.2520315 0.00032064 241.99883938 -0.01811981 C264.92192348 -0.03951634 287.84495172 -0.0479593 310.76804441 -0.03567076 C313.2114305 -0.03439654 315.6548166 -0.03313906 318.09820271 -0.0318985 C319.3004456 -0.0312814 320.50268849 -0.03066429 321.74136298 -0.03002849 C330.22105748 -0.02657211 338.7007166 -0.0324101 347.18040562 -0.04181671 C357.51093713 -0.05302443 367.84134703 -0.05002235 378.17186458 -0.02869374 C383.44449341 -0.0181672 388.71691935 -0.01408889 393.98954678 -0.02729034 C398.81377631 -0.03918664 403.63761437 -0.03269733 408.46180826 -0.01138014 C410.20933495 -0.00690237 411.95689455 -0.00920658 413.70440019 -0.01888329 C416.07618792 -0.03101211 418.44662724 -0.01860918 420.81834412 0 C422.1367358 0.00064941 423.45512748 0.00129882 424.81347042 0.00196791 C430.13030586 0.75656986 433.16782712 3.18764289 436.68989468 7.12006378 C438.94618046 11.72878903 438.89998818 15.56965348 438.84796047 20.63617706 C438.85606495 22.14459167 438.85606495 22.14459167 438.86433315 23.68347931 C438.87681318 26.99874289 438.86033354 30.31313686 438.84234524 33.62836456 C438.84250024 35.93712154 438.84398945 38.24587877 438.84675503 40.55463409 C438.8481387 45.38987502 438.83558578 50.2248192 438.81280422 55.06000519 C438.78442008 61.25405588 438.78715753 67.44761358 438.79989433 73.64170074 C438.80685337 78.40811108 438.79905957 83.17440771 438.78663731 87.94080353 C438.78212503 90.22453119 438.78178405 92.50827106 438.78570271 94.79199982 C438.78861704 97.98510456 438.77209646 101.17753285 438.75030422 104.37055206 C438.75705669 105.78277039 438.75705669 105.78277039 438.76394558 107.22351837 C438.69145014 113.6253777 437.76947336 118.08014269 433.07281399 122.77680206 C429.90841205 124.78062105 427.40175655 125.45102106 423.72125149 126.12836456 C422.77173611 126.30492584 422.77173611 126.30492584 421.8030386 126.48505402 C413.38324917 127.96982756 404.8546422 128.72487887 396.34625149 129.50336456 C396.23410305 128.43408722 396.23410305 128.43408722 396.11968899 127.34320831 C395.18992584 120.57052184 393.73838711 115.92801174 388.34625149 111.50336456 C383.24139691 108.25319168 377.0215391 109.1314226 371.18438625 109.13275909 C369.05067215 109.12839914 366.91905127 109.09209607 364.78570461 109.05414581 C354.80979796 108.87401372 354.80979796 108.87401372 346.34625149 113.50336456 C341.85150285 118.45346356 341.70189316 123.00144895 341.59625149 129.37836456 C341.55177883 130.6970755 341.55177883 130.6970755 341.50640774 132.04242706 C341.4361959 134.19559001 341.38890268 136.34947941 341.34625149 138.50336456 C340.29824368 138.636138 339.25023586 138.76891144 338.17047024 138.90570831 C336.79154371 139.08393691 335.41263856 139.26233097 334.03375149 139.44086456 C333.34345852 139.52787628 332.65316555 139.614888 331.94195461 139.70453644 C328.94482861 140.09546592 326.22175029 140.54486496 323.34625149 141.50336456 C321.95185484 141.57001832 320.55455274 141.58874655 319.15875149 141.56586456 C317.90062649 141.54523956 316.64250149 141.52461456 315.34625149 141.50336456 C314.96146633 140.17498566 314.96146633 140.17498566 314.56890774 138.81977081 C310.05536084 124.2153312 303.56350976 110.99010182 293.34625149 99.50336456 C292.7339468 98.749263 292.12164211 97.99516144 291.49078274 97.21820831 C275.16573215 77.59448771 250.1163764 67.50771772 225.34625149 64.50336456 C199.92404664 62.34703861 173.58954876 69.90696421 153.53375149 85.87836456 C151.78438622 87.39707278 150.05472155 88.93879321 148.34625149 90.50336456 C147.49418118 91.27422394 146.64211086 92.04508331 145.76422024 92.83930206 C131.00717242 106.84829676 122.78664567 124.19874004 117.34625149 143.50336456 C104.56291933 142.36914407 91.97530163 140.79123597 79.34625149 138.50336456 C79.3320718 137.213013 79.31789211 135.92266144 79.30328274 134.59320831 C79.25635698 132.87572575 79.20810975 131.15827894 79.15875149 129.44086456 C79.15295071 128.59330597 79.14714993 127.74574738 79.14117336 126.87250519 C78.93146888 120.83767626 77.82094329 116.72596106 73.34625149 112.50336456 C67.27483356 108.46401304 60.43526504 109.01202206 53.33038235 109.05731964 C51.2845277 109.06586132 49.24144289 109.03696178 47.19586086 109.00531769 C45.24196438 109.00628448 45.24196438 109.00628448 43.24859524 109.00727081 C41.47730251 109.00449127 41.47730251 109.00449127 39.6702261 109.00165558 C34.50624984 109.78108791 31.42835074 112.27503569 28.03375149 116.12836456 C25.77818615 119.30286393 25.1668317 121.29756243 24.78375149 125.12836456 C24.69996243 125.94563019 24.61617336 126.76289581 24.52984524 127.60492706 C24.43896633 128.54465363 24.43896633 128.54465363 24.34625149 129.50336456 C18.00854078 128.87427818 11.67594304 128.20862267 5.34625149 127.50336456 C4.04429836 127.35898956 2.74234524 127.21461456 1.40093899 127.06586456 C-5.93545301 126.11264426 -10.30456957 124.64935342 -15.77473545 119.51105499 C-18.51792611 115.12009653 -18.20585558 111.27381121 -18.1554575 106.19281769 C-18.16086048 105.15648697 -18.16626347 104.12015625 -18.17183018 103.05242157 C-18.18432925 99.62952802 -18.16781781 96.2074736 -18.14984226 92.78461456 C-18.14999722 90.40477199 -18.15148569 88.02492916 -18.15425205 85.6450882 C-18.15563658 80.65844308 -18.1430685 75.67208539 -18.12030125 70.68549347 C-18.09191686 64.2929027 -18.09465342 57.90078957 -18.10739136 51.50816345 C-18.11434566 46.59424509 -18.10656201 41.68043716 -18.09413433 36.7665329 C-18.08961744 34.40941033 -18.08928509 32.05227592 -18.09319973 29.69515228 C-18.09610942 26.40115804 -18.07961565 23.10782247 -18.05780125 19.81391144 C-18.06230289 18.83921402 -18.06680454 17.8645166 -18.0714426 16.8602829 C-17.97570384 8.16119733 -17.97570384 8.16119733 -14.65374851 4.50336456 C-9.5406159 1.08478572 -6.28044427 0.00309322 0 0 Z " fill="#DB6D41" transform="translate(45.653748512268066,127.49663543701172)"/>
<path d="M0 0 C3.27139242 0.30681865 6.54198921 0.62143282 9.8125 0.9375 C10.74126953 1.02451172 11.67003906 1.11152344 12.62695312 1.20117188 C13.51962891 1.28818359 14.41230469 1.37519531 15.33203125 1.46484375 C16.15421143 1.543396 16.9763916 1.62194824 17.82348633 1.70288086 C20 2 20 2 23 3 C23.01458252 3.59949463 23.02916504 4.19898926 23.04418945 4.81665039 C23.11923821 7.56587455 23.21570752 10.31395889 23.3125 13.0625 C23.33505859 14.00544922 23.35761719 14.94839844 23.38085938 15.91992188 C23.6565698 23.11345761 24.61057882 28.17042228 29.375 33.8125 C35.69256854 39.07714045 42.4595329 38.36663243 50.3125 38.375 C52.10977539 38.41173828 52.10977539 38.41173828 53.94335938 38.44921875 C61.12332952 38.47295419 65.93178491 37.93283608 72 34 C76.58282025 29.18216332 77.14496376 25.31413577 77.5625 18.8125 C77.68818359 16.90404297 77.68818359 16.90404297 77.81640625 14.95703125 C77.87699219 13.98121094 77.93757813 13.00539063 78 12 C79.02996094 12.12117188 80.05992188 12.24234375 81.12109375 12.3671875 C81.80171875 12.44718994 82.48234375 12.52719238 83.18359375 12.60961914 C84.69798335 12.78792736 86.21230545 12.96680982 87.7265625 13.14624023 C91.77595253 13.62522284 95.82603904 14.09428472 99.87890625 14.54296875 C100.65371338 14.6301416 101.42852051 14.71731445 102.22680664 14.80712891 C103.72690777 14.97565063 105.22739638 15.14076265 106.72827148 15.30224609 C111.88756759 15.88756759 111.88756759 15.88756759 113 17 C113.11465388 19.14445224 113.2218037 21.28958897 113.28955078 23.43603516 C114.25883479 53.93801826 125.54455916 80.65213159 147.8125 101.75 C170.33839811 121.08827102 196.85278613 127.42464659 226 126 C239.65115028 124.79958024 254.74516882 120.40837687 266.23828125 112.78515625 C268 112 268 112 269.84375 112.0390625 C275.39993783 114.51518969 280.61348954 119.97211277 284 125 C284.90495239 128.2775015 285.09170942 130.8312554 284.91015625 134.2109375 C285.13205753 141.0995251 289.99811774 145.3955023 294.63671875 149.89453125 C295.27615921 150.52735519 295.91559967 151.16017914 296.57441711 151.81217957 C298.6050916 153.81955878 300.64570595 155.81643752 302.6875 157.8125 C304.73818662 159.82816495 306.78672073 161.84595404 308.8327179 163.86637878 C310.10383272 165.12046082 311.37800801 166.37144951 312.65544128 167.61909485 C314.12217919 169.06076208 315.56395913 170.52775304 317 172 C317 172.33 317 172.66 317 173 C278.28101321 173.11444521 239.5620519 173.20254878 200.8429302 173.25532665 C196.27175137 173.26158018 191.70057287 173.26805179 187.12939453 173.2746582 C185.764336 173.27662553 185.764336 173.27662553 184.37170053 173.2786326 C169.63660619 173.30038895 154.9016094 173.33981174 140.16657293 173.38576398 C125.04697447 173.43252224 109.92742708 173.46029406 94.80775928 173.47044247 C85.47812676 173.47730295 76.14876993 173.49897068 66.81922227 173.53958233 C60.42152578 173.56601291 54.02397182 173.57400029 47.6262247 173.56750689 C43.93500881 173.56430445 40.24427467 173.5692119 36.55314445 173.59602737 C32.54878688 173.62490557 28.54545373 173.61493321 24.54101562 173.60127258 C22.79586088 173.62311889 22.79586088 173.62311889 21.01545048 173.64540654 C14.14587274 173.58198797 9.21234761 172.70166525 4 168 C-1.51643051 161.2396873 -0.53709159 152.66662601 -0.45410156 144.40429688 C-0.45297197 142.82678252 -0.45360912 141.24926607 -0.45587158 139.67175293 C-0.45701532 135.40771362 -0.43356152 131.14412796 -0.40557575 126.88019371 C-0.38050509 122.41726378 -0.37821564 117.95432249 -0.37347412 113.49133301 C-0.36106095 105.04833295 -0.32826188 96.60554103 -0.28807616 88.16263247 C-0.24330673 78.5471817 -0.22135842 68.93172079 -0.20129442 59.31619167 C-0.15952772 39.54401179 -0.08920802 19.77201903 0 0 Z " fill="#DB6D41" transform="translate(47,268)"/>
<path d="M0 0 C18.70092843 14.18041624 32.05371011 33.91023577 36.3046875 57.3046875 C38.8913819 80.97910002 35.0474182 103.82070316 20.9765625 123.48828125 C19.3161716 126.87074941 19.75416278 128.44954904 20.71484375 132.05859375 C22.44693101 134.472532 22.44693101 134.472532 24.75 136.58203125 C25.55888672 137.37480469 26.36777344 138.16757812 27.20117188 138.984375 C28.47637695 140.19673828 28.47637695 140.19673828 29.77734375 141.43359375 C30.63134766 142.26503906 31.48535156 143.09648437 32.36523438 143.953125 C34.47094309 146.00001504 36.58742124 148.03432092 38.71484375 150.05859375 C37.13884452 153.36975338 35.40310069 155.72561913 32.83984375 158.37109375 C32.16179687 159.08910156 31.48375 159.80710937 30.78515625 160.546875 C28.71484375 162.05859375 28.71484375 162.05859375 26.6640625 161.98046875 C24.42910035 160.92345258 23.10877246 159.7839749 21.40234375 157.99609375 C20.80292969 157.3721875 20.20351563 156.74828125 19.5859375 156.10546875 C17.09118114 153.37634071 14.67257181 150.587761 12.29296875 147.7578125 C9.94104615 145.22542059 8.11491306 144.13360675 4.71484375 143.49609375 C1.02758234 143.60297089 -1.09340754 145.06288342 -4.09765625 147.12109375 C-23.37309673 160.16582101 -47.66071481 162.73217703 -70.28515625 159.05859375 C-85.82753099 155.16464395 -99.44222997 147.82837461 -111.28515625 137.05859375 C-111.97867188 136.45789063 -112.6721875 135.8571875 -113.38671875 135.23828125 C-130.38017328 119.59888685 -138.16149879 97.26421394 -139.59765625 74.7421875 C-140.48245405 53.17833045 -132.57346816 30.80547522 -117.97265625 14.87109375 C-116.10487363 12.90255543 -114.20192467 10.98070136 -112.28515625 9.05859375 C-111.50398438 8.25421875 -110.7228125 7.44984375 -109.91796875 6.62109375 C-100.45638804 -2.55377239 -87.95661913 -9.37248783 -75.28515625 -12.94140625 C-74.24488281 -13.23789063 -73.20460938 -13.534375 -72.1328125 -13.83984375 C-47.37376541 -20.0225153 -21.01086445 -14.18628291 0 0 Z " fill="#FAB03A" transform="translate(313.28515625,220.94140625)"/>
<path d="M0 0 C0.09349959 20.72319925 0.1640068 41.44636365 0.20724869 62.16973114 C0.22786158 71.79226234 0.25595784 81.41466237 0.30175781 91.03710938 C0.34166455 99.42541356 0.36744207 107.81362273 0.37635398 116.20201921 C0.38156223 120.64240311 0.39377693 125.08251522 0.42292023 129.52281189 C0.45015003 133.70561129 0.45842979 137.88802797 0.45243073 142.07090759 C0.45352759 143.60272301 0.46143652 145.13455174 0.4768219 146.66629028 C0.63414978 163.14324914 0.63414978 163.14324914 -5.7890625 169.875 C-11.22420348 173.20546937 -15.69870903 173.58106167 -22 173 C-21.96777344 172.32195312 -21.93554688 171.64390625 -21.90234375 170.9453125 C-21.97447433 165.15883721 -22.71826541 161.66256753 -26.77050781 157.42578125 C-27.99610413 156.13172363 -27.99610413 156.13172363 -29.24645996 154.81152344 C-30.15512817 153.8837207 -31.06379639 152.95591797 -32 152 C-32.96705253 151.00298032 -33.93405135 150.00590855 -34.90100098 149.00878906 C-38.15557678 145.67016654 -41.4429015 142.3646936 -44.734375 139.0625 C-45.32667152 138.4673761 -45.91896805 137.8722522 -46.52921295 137.25909424 C-49.65108534 134.12237123 -52.77570995 130.98842274 -55.90283203 127.85693359 C-59.12293895 124.63129789 -62.33362705 121.39644989 -65.54232407 118.1594696 C-68.0251578 115.65802508 -70.51466169 113.16330129 -73.00605011 110.67037964 C-74.19344725 109.4799625 -75.37835081 108.28705253 -76.56066132 107.09158325 C-78.20889627 105.42628721 -79.86634242 103.77071986 -81.52636719 102.1171875 C-82.00854202 101.62579788 -82.49071686 101.13440826 -82.98750305 100.62812805 C-85.78542869 97.86432534 -88.2035242 96.09477794 -92 95 C-93.48646938 95.20209602 -94.96678197 95.45432705 -96.4375 95.75 C-100.62281679 95.90219334 -102.71211228 94.66300561 -105.796875 92.03125 C-107.11304266 90.79099292 -108.40977026 89.52982095 -109.6875 88.25 C-110.32421631 87.61674805 -110.96093262 86.98349609 -111.61694336 86.33105469 C-114.96308613 82.78042285 -114.96308613 82.78042285 -116 81 C-115.51791553 76.99026606 -113.37733818 73.46927433 -111.625 69.875 C-108.8398192 64.01246196 -106.53736741 58.32461275 -105 52 C-104.73445313 51.03835938 -104.46890625 50.07671875 -104.1953125 49.0859375 C-101.38428555 37.86860139 -101.26925095 26.5108501 -101 15 C-98.48056604 14.49187886 -95.95983127 13.99335466 -93.4375 13.5 C-92.38079102 13.28537109 -92.38079102 13.28537109 -91.30273438 13.06640625 C-86.78109762 12.19125075 -82.60512972 11.85476595 -78 12 C-77.94392578 13.41152344 -77.94392578 13.41152344 -77.88671875 14.8515625 C-77.82097656 16.09679687 -77.75523437 17.34203125 -77.6875 18.625 C-77.62949219 19.85476563 -77.57148438 21.08453125 -77.51171875 22.3515625 C-76.80671541 27.37807486 -75.31364777 30.75549158 -71.625 34.25 C-64.89146502 38.73902332 -58.5512272 38.36662096 -50.6875 38.375 C-48.89022461 38.41173828 -48.89022461 38.41173828 -47.05664062 38.44921875 C-40.32992532 38.47145583 -34.3506203 38.47328538 -29 34 C-23.39623157 28.17733436 -23.23109783 21.74103776 -23.1875 14 C-23.16236328 12.93910156 -23.13722656 11.87820313 -23.11132812 10.78515625 C-23.05287259 8.18973045 -23.01628872 5.59597497 -23 3 C-19.72971069 2.49639777 -16.45868619 1.99774046 -13.1875 1.5 C-12.25873047 1.35691406 -11.32996094 1.21382813 -10.37304688 1.06640625 C-9.48037109 0.93105469 -8.58769531 0.79570312 -7.66796875 0.65625 C-6.84578857 0.53056641 -6.0236084 0.40488281 -5.17651367 0.27539062 C-3 0 -3 0 0 0 Z " fill="#DA6C41" transform="translate(465,268)"/>
<path d="M0 0 C18.70092843 14.18041624 32.05371011 33.91023577 36.3046875 57.3046875 C38.8913819 80.97910002 35.0474182 103.82070316 20.9765625 123.48828125 C19.3161716 126.87074941 19.75416278 128.44954904 20.71484375 132.05859375 C22.44693101 134.472532 22.44693101 134.472532 24.75 136.58203125 C25.55888672 137.37480469 26.36777344 138.16757812 27.20117188 138.984375 C28.47637695 140.19673828 28.47637695 140.19673828 29.77734375 141.43359375 C30.63134766 142.26503906 31.48535156 143.09648437 32.36523438 143.953125 C34.47094309 146.00001504 36.58742124 148.03432092 38.71484375 150.05859375 C37.13884452 153.36975338 35.40310069 155.72561913 32.83984375 158.37109375 C32.16179687 159.08910156 31.48375 159.80710937 30.78515625 160.546875 C28.71484375 162.05859375 28.71484375 162.05859375 26.6640625 161.98046875 C24.42910035 160.92345258 23.10877246 159.7839749 21.40234375 157.99609375 C20.80292969 157.3721875 20.20351563 156.74828125 19.5859375 156.10546875 C17.09118114 153.37634071 14.67257181 150.587761 12.29296875 147.7578125 C9.94104615 145.22542059 8.11491306 144.13360675 4.71484375 143.49609375 C1.02758234 143.60297089 -1.09340754 145.06288342 -4.09765625 147.12109375 C-23.37309673 160.16582101 -47.66071481 162.73217703 -70.28515625 159.05859375 C-85.82753099 155.16464395 -99.44222997 147.82837461 -111.28515625 137.05859375 C-111.97867188 136.45789063 -112.6721875 135.8571875 -113.38671875 135.23828125 C-130.38017328 119.59888685 -138.16149879 97.26421394 -139.59765625 74.7421875 C-140.48245405 53.17833045 -132.57346816 30.80547522 -117.97265625 14.87109375 C-116.10487363 12.90255543 -114.20192467 10.98070136 -112.28515625 9.05859375 C-111.50398438 8.25421875 -110.7228125 7.44984375 -109.91796875 6.62109375 C-100.45638804 -2.55377239 -87.95661913 -9.37248783 -75.28515625 -12.94140625 C-74.24488281 -13.23789063 -73.20460938 -13.534375 -72.1328125 -13.83984375 C-47.37376541 -20.0225153 -21.01086445 -14.18628291 0 0 Z M-109.37109375 25.46875 C-122.45931841 43.17791928 -127.68536328 62.51405076 -125.00830078 84.31298828 C-121.89154828 103.26549605 -111.45981135 120.09952854 -96.47265625 131.93359375 C-82.76920702 141.5899103 -69.21789797 146.61253562 -52.34765625 146.43359375 C-50.71280273 146.45099609 -50.71280273 146.45099609 -49.04492188 146.46875 C-28.8685471 146.39681997 -12.23968506 138.01718474 2.33203125 124.49609375 C16.1867971 110.32334967 23.04961968 91.53897915 23.15234375 71.93359375 C22.88939761 52.74014837 16.76785182 36.29124499 3.71484375 22.05859375 C3.08964844 21.35347656 2.46445312 20.64835937 1.8203125 19.921875 C-10.9182608 6.3012009 -30.190026 -1.77169325 -48.70825195 -2.41674805 C-72.42869402 -2.64372717 -93.93134737 7.3921745 -109.37109375 25.46875 Z " fill="#E1E1E1" transform="translate(313.28515625,220.94140625)"/>
<path d="M0 0 C14.83884398 11.26389436 27.06159121 27.68394988 30.59765625 46.265625 C33.04647065 68.9944266 29.23954906 89.98001277 15.125 108.4375 C3.04252595 122.44752828 -12.45394207 132.32642343 -31 135 C-44.14982184 135.81337948 -57.81145163 136.60812126 -70 131 C-71.02867187 130.55269531 -72.05734375 130.10539063 -73.1171875 129.64453125 C-79.7953161 126.53861857 -85.37719869 122.71954005 -91 118 C-91.99 117.278125 -92.98 116.55625 -94 115.8125 C-107.31935476 104.44861837 -115.69474581 85.71481306 -117.22314453 68.484375 C-118.47074497 47.33383205 -112.98864413 28.51190127 -99.109375 12.265625 C-73.20600553 -15.55651258 -31.89490156 -21.97143803 0 0 Z M-91.25 24.8125 C-101.10774006 38.91493266 -104.64825078 54.0276818 -103 71 C-100.02672379 87.24683072 -90.99945263 101.38071848 -77.5625 110.8125 C-72.63448449 114.14478389 -67.64142464 117.06264243 -62 119 C-60.989375 119.35449219 -59.97875 119.70898438 -58.9375 120.07421875 C-46.55493883 123.51565304 -30.64250265 122.23830514 -19 117 C-18.07574219 116.59910156 -17.15148437 116.19820313 -16.19921875 115.78515625 C-1.62346345 108.67251753 8.38236292 96.55054649 14.17578125 81.58203125 C19.15867771 65.97210442 18.75184078 49.20299351 11.71484375 34.2734375 C8.08193384 27.73622357 3.21581821 22.31754516 -2 17 C-2.54140625 16.43410156 -3.0828125 15.86820313 -3.640625 15.28515625 C-14.59198464 4.85924063 -30.26982441 0.45964906 -45.01660156 0.50756836 C-63.42696477 1.12445005 -79.83142675 10.50954757 -91.25 24.8125 Z " fill="#040302" transform="translate(305,232)"/>
<path d="M0 0 C1.36434677 -0.01073296 1.36434677 -0.01073296 2.7562561 -0.02168274 C3.74179977 -0.02437164 4.72734344 -0.02706055 5.74275208 -0.02983093 C6.79055847 -0.03640213 7.83836487 -0.04297333 8.91792297 -0.04974365 C12.38142473 -0.0694346 15.8448832 -0.08113005 19.3084259 -0.09111023 C21.08664954 -0.09722352 21.08664954 -0.09722352 22.90079689 -0.10346031 C29.17575022 -0.1243033 35.4506818 -0.13861261 41.72566223 -0.147995 C48.19399635 -0.15905458 54.66198602 -0.1934549 61.13019848 -0.23316669 C66.11548486 -0.25935798 71.10068946 -0.2676891 76.08603859 -0.27127647 C78.46975849 -0.27613601 80.85347489 -0.28773179 83.2371273 -0.30631447 C86.58042302 -0.33075812 89.92283117 -0.32973089 93.26618958 -0.32279968 C94.24161209 -0.33560974 95.21703461 -0.3484198 96.22201538 -0.36161804 C104.35973628 -0.30044118 110.80114187 1.88468574 117.64045715 6.27217102 C127.24197417 16.54356132 125.9258242 28.04406223 125.64045715 41.27217102 C125.61534261 43.29818517 125.59253502 45.32422929 125.57209778 47.35029602 C125.51735378 52.28333548 125.43125538 57.21491914 125.32795715 62.14717102 C119.71795715 62.14717102 114.10795715 62.14717102 108.32795715 62.14717102 C108.31377747 59.79721008 108.29959778 57.44724915 108.2849884 55.02607727 C108.25427769 52.72230698 108.215213 50.41881697 108.17536926 48.1151886 C108.15232987 46.52772607 108.13782687 44.94011373 108.13240051 43.35249329 C108.26838984 30.36025095 108.26838984 30.36025095 102.32795715 19.14717102 C96.44047534 15.30228494 90.8844143 14.99365422 84.01448059 14.97016907 C83.17818619 14.96359787 82.34189178 14.95702667 81.48025513 14.95025635 C78.71594649 14.93056567 75.95169209 14.91887007 73.18733215 14.90888977 C72.24115273 14.90481424 71.2949733 14.90073872 70.32012177 14.89653969 C65.31183085 14.87569681 60.30356719 14.86138748 55.29524231 14.852005 C50.13261148 14.84094534 44.9704122 14.80654534 39.80793381 14.76683331 C35.82896646 14.74064163 31.85010157 14.73231089 27.8710556 14.72872353 C25.96853471 14.72386406 24.06601819 14.71226836 22.16358185 14.69368553 C19.49504741 14.66923996 16.82762484 14.67026886 14.15901184 14.67720032 C13.38054398 14.66439026 12.60207611 14.6515802 11.80001831 14.63838196 C6.2197572 14.69094 2.01810887 16.09478793 -2.67204285 19.14717102 C-4.55140084 21.02995413 -4.55140084 21.02995413 -5.60954285 23.14717102 C-5.98981628 23.80717102 -6.37008972 24.46717102 -6.7618866 25.14717102 C-8.70554275 29.41820943 -8.84996699 33.43147058 -8.9884491 38.10029602 C-9.00923019 38.76051758 -9.03001129 39.42073914 -9.05142212 40.10096741 C-9.11654431 42.19960117 -9.17562786 44.29835474 -9.23454285 46.39717102 C-9.27776364 47.82426649 -9.32137905 49.25135007 -9.36540222 50.67842102 C-9.47292636 54.16788361 -9.5722757 57.65744359 -9.67204285 61.14717102 C-14.95204285 61.14717102 -20.23204285 61.14717102 -25.67204285 61.14717102 C-25.82111409 54.90337917 -25.92960089 48.66063826 -26.00163269 42.41548157 C-26.03168049 40.2942041 -26.07253157 38.17304957 -26.12467957 36.05220032 C-26.19802517 32.99109974 -26.23161969 29.93165068 -26.25798035 26.86982727 C-26.28894806 25.93195877 -26.31991577 24.99409027 -26.3518219 24.02780151 C-26.35538815 16.94344628 -24.27421119 12.5139215 -19.67204285 7.14717102 C-17.0743866 4.99092102 -17.0743866 4.99092102 -14.60954285 3.64717102 C-13.385578 2.95107727 -13.385578 2.95107727 -12.1368866 2.24092102 C-8.15896736 0.47575876 -4.32267922 0.02349624 0 0 Z " fill="#A74024" transform="translate(206.6720428466797,50.85282897949219)"/>
<path d="M0 0 C3.24302092 1.3908871 5.43741652 3.7461681 7.88832092 6.21092224 C8.44485855 6.75899033 9.00139618 7.30705841 9.57479858 7.87173462 C11.41148423 9.68502784 13.23676284 11.50930719 15.06117249 13.33494568 C16.333115 14.59978875 17.60535632 15.86433139 18.87788391 17.12858582 C21.54267172 19.77992416 24.20144133 22.43713217 26.85658264 25.09812927 C30.26186491 28.50931236 33.68504765 31.90188389 37.11341476 35.28984451 C39.74541925 37.89601801 42.36588588 40.513557 44.98317719 43.1344986 C46.2407477 44.39037402 47.50231432 45.64226097 48.76789093 46.89006805 C50.53502366 48.63510003 52.2855943 50.39523971 54.03285217 52.16014099 C54.55956009 52.67358566 55.08626801 53.18703033 55.62893677 53.71603394 C57.85440908 55.99415188 59.12377597 57.46392829 59.64137268 60.65086365 C58.98692466 64.06540667 57.1956787 65.56449657 54.74867249 67.99119568 C53.81925842 68.91803162 52.88984436 69.84486755 51.93226624 70.79978943 C51.44290588 71.27464783 50.95354553 71.74950623 50.44935608 72.23875427 C48.95673465 73.68952196 47.48657859 75.16046522 46.01820374 76.63572693 C37.67261416 84.86620493 37.67261416 84.86620493 34.20179749 84.94432068 C32.02130112 83.27138739 30.22743194 81.6528313 28.31581116 79.70530701 C27.44933456 78.85197281 27.44933456 78.85197281 26.56535339 77.98139954 C24.65402804 76.09213154 22.76163025 74.18509367 20.86976624 72.27635193 C19.55102467 70.96097663 18.23154148 69.64634447 16.91134644 68.33242798 C14.14521155 65.57367309 11.38834416 62.80605442 8.6375885 60.03196716 C5.10556684 56.47145817 1.55157556 52.9338647 -2.00964832 49.40259266 C-4.73896127 46.69132164 -7.4562841 43.96828587 -10.17009544 41.24150658 C-11.47620468 39.93205479 -12.78605795 38.62632676 -14.09963417 37.32436562 C-15.93184155 35.50481488 -17.74732006 33.6700808 -19.55918884 31.83030701 C-20.10819351 31.29142349 -20.65719818 30.75253998 -21.22283936 30.19732666 C-22.70550537 28.67193604 -22.70550537 28.67193604 -24.79820251 25.94432068 C-24.68639085 20.22013206 -18.37559278 16.00374681 -14.54307556 12.18821716 C-12.98735303 10.63347016 -11.45419385 9.05860115 -9.92124939 7.48143005 C-8.9375262 6.49250214 -7.95254161 5.50482705 -6.96617126 4.51853943 C-6.07180359 3.61708191 -5.17743591 2.71562439 -4.25596619 1.78684998 C-1.79820251 -0.05567932 -1.79820251 -0.05567932 0 0 Z " fill="#E3E3E3" transform="translate(369.79820251464844,376.05567932128906)"/>
<path d="M0 0 C1.07056641 -0.00128906 2.14113281 -0.00257813 3.24414062 -0.00390625 C4.93506836 0.00189453 4.93506836 0.00189453 6.66015625 0.0078125 C8.3452832 0.00201172 8.3452832 0.00201172 10.06445312 -0.00390625 C11.67223633 -0.00197266 11.67223633 -0.00197266 13.3125 0 C14.79544556 0.00169189 14.79544556 0.00169189 16.30834961 0.00341797 C18.72265625 0.1328125 18.72265625 0.1328125 20.72265625 1.1328125 C20.77200551 6.79279296 20.80835154 12.45264886 20.83251953 18.11279297 C20.84259207 20.03924744 20.85625068 21.96568658 20.87353516 23.89208984 C20.89772866 26.65726502 20.90912661 29.4222385 20.91796875 32.1875 C20.92829132 33.0521286 20.93861389 33.9167572 20.94924927 34.80758667 C20.94964731 36.91734771 20.84530868 39.02661968 20.72265625 41.1328125 C18.15276944 43.70269931 17.13355572 43.38988025 13.56640625 43.3984375 C12.03306641 43.40230469 12.03306641 43.40230469 10.46875 43.40625 C9.39753906 43.39851563 8.32632812 43.39078125 7.22265625 43.3828125 C5.61583984 43.39441406 5.61583984 43.39441406 3.9765625 43.40625 C2.95433594 43.40367187 1.93210937 43.40109375 0.87890625 43.3984375 C-0.06146484 43.39618164 -1.00183594 43.39392578 -1.97070312 43.39160156 C-4.27734375 43.1328125 -4.27734375 43.1328125 -6.27734375 41.1328125 C-6.46510542 38.13145637 -6.53284557 35.22394104 -6.5078125 32.22265625 C-6.50735428 31.34001602 -6.50689606 30.45737579 -6.50642395 29.54798889 C-6.50340062 27.68098609 -6.49551192 25.81398583 -6.4831543 23.94702148 C-6.46489601 21.07852311 -6.46264459 18.21034729 -6.46289062 15.34179688 C-6.45797563 13.53124719 -6.45214739 11.72069971 -6.4453125 9.91015625 C-6.44419968 9.04664047 -6.44308685 8.18312469 -6.44194031 7.29344177 C-6.38341757 0.00729117 -6.38341757 0.00729117 0 0 Z " fill="#A74024" transform="translate(407.27734375,249.8671875)"/>
<path d="M0 0 C1.48294556 0.00616333 1.48294556 0.00616333 2.99584961 0.01245117 C4.06770508 0.01438477 5.13956055 0.01631836 6.24389648 0.01831055 C7.36731445 0.03055664 8.49073242 0.04280273 9.64819336 0.05541992 C11.33912109 0.05638672 11.33912109 0.05638672 13.06420898 0.05737305 C21.44556019 0.10278675 21.44556019 0.10278675 22.58569336 1.24291992 C22.69922352 4.17657739 22.74988044 7.08580454 22.75366211 10.02026367 C22.75699051 10.90194717 22.76031891 11.78363068 22.76374817 12.69203186 C22.76882119 14.56079586 22.77115638 16.42956896 22.77099609 18.29833984 C22.77318144 21.16478336 22.79132991 24.03084152 22.81030273 26.8972168 C22.81323675 28.70906443 22.81522149 30.5209139 22.81616211 32.33276367 C22.82334763 33.19425522 22.83053314 34.05574677 22.8379364 34.94334412 C22.81451496 41.01409832 22.81451496 41.01409832 20.58569336 43.24291992 C18.27905273 43.50170898 18.27905273 43.50170898 15.42944336 43.50854492 C13.89610352 43.51241211 13.89610352 43.51241211 12.33178711 43.51635742 C11.26057617 43.50862305 10.18936523 43.50088867 9.08569336 43.49291992 C7.47887695 43.50452148 7.47887695 43.50452148 5.83959961 43.51635742 C4.81737305 43.5137793 3.79514648 43.51120117 2.74194336 43.50854492 C1.80157227 43.50628906 0.86120117 43.5040332 -0.10766602 43.50170898 C-2.41430664 43.24291992 -2.41430664 43.24291992 -4.41430664 41.24291992 C-4.61428988 38.32542857 -4.69405551 35.50490063 -4.67993164 32.58666992 C-4.68184509 31.72859741 -4.68375854 30.8705249 -4.68572998 29.9864502 C-4.68709208 28.1707327 -4.68339392 26.35500547 -4.67504883 24.53930664 C-4.66434956 21.75409142 -4.67494317 18.96952124 -4.68774414 16.18432617 C-4.68642255 14.42260599 -4.68386017 12.66088622 -4.67993164 10.89916992 C-4.6839801 10.06268921 -4.68802856 9.2262085 -4.69219971 8.36437988 C-4.62788042 0.46564274 -4.62788042 0.46564274 0 0 Z " fill="#A84024" transform="translate(88.414306640625,249.757080078125)"/>
</svg>
